<mxfile host="app.diagrams.net" modified="2022-05-17T14:11:07.857Z" agent="5.0 (X11; Linux x86_64) AppleWebKit/537.36 (KHTML, like Gecko) Chrome/101.0.4951.54 Safari/537.36" etag="E1VQBUPGjNYXG8SgAF-d" version="18.0.6" type="github">
  <diagram id="C5RBs43oDa-KdzZeNtuy" name="General">
    <mxGraphModel dx="1810" dy="1633" grid="1" gridSize="10" guides="1" tooltips="1" connect="1" arrows="1" fold="1" page="1" pageScale="1" pageWidth="827" pageHeight="1169" math="0" shadow="0">
      <root>
        <mxCell id="WIyWlLk6GJQsqaUBKTNV-0" />
        <mxCell id="WIyWlLk6GJQsqaUBKTNV-1" parent="WIyWlLk6GJQsqaUBKTNV-0" />
        <mxCell id="r5x3oo1cbtI0Zd6zdWHc-1" value="Users Schema" style="swimlane;fontStyle=0;childLayout=stackLayout;horizontal=1;startSize=30;horizontalStack=0;resizeParent=1;resizeParentMax=0;resizeLast=0;collapsible=1;marginBottom=0;" vertex="1" parent="WIyWlLk6GJQsqaUBKTNV-1">
          <mxGeometry x="10" y="10" width="390" height="480" as="geometry" />
        </mxCell>
        <mxCell id="r5x3oo1cbtI0Zd6zdWHc-2" value="Authorization - String, Unique" style="text;strokeColor=none;fillColor=none;align=left;verticalAlign=middle;spacingLeft=4;spacingRight=4;overflow=hidden;points=[[0,0.5],[1,0.5]];portConstraint=eastwest;rotatable=0;" vertex="1" parent="r5x3oo1cbtI0Zd6zdWHc-1">
          <mxGeometry y="30" width="390" height="30" as="geometry" />
        </mxCell>
        <mxCell id="r5x3oo1cbtI0Zd6zdWHc-30" value="Privilegies - [Privilegies Schema]" style="text;strokeColor=none;fillColor=none;align=left;verticalAlign=middle;spacingLeft=4;spacingRight=4;overflow=hidden;points=[[0,0.5],[1,0.5]];portConstraint=eastwest;rotatable=0;" vertex="1" parent="r5x3oo1cbtI0Zd6zdWHc-1">
          <mxGeometry y="60" width="390" height="30" as="geometry" />
        </mxCell>
        <mxCell id="r5x3oo1cbtI0Zd6zdWHc-31" value="Plan - Plans Schema" style="text;strokeColor=none;fillColor=none;align=left;verticalAlign=middle;spacingLeft=4;spacingRight=4;overflow=hidden;points=[[0,0.5],[1,0.5]];portConstraint=eastwest;rotatable=0;" vertex="1" parent="r5x3oo1cbtI0Zd6zdWHc-1">
          <mxGeometry y="90" width="390" height="30" as="geometry" />
        </mxCell>
        <mxCell id="r5x3oo1cbtI0Zd6zdWHc-3" value="Billing -Â Billings Schema" style="text;strokeColor=none;fillColor=none;align=left;verticalAlign=middle;spacingLeft=4;spacingRight=4;overflow=hidden;points=[[0,0.5],[1,0.5]];portConstraint=eastwest;rotatable=0;" vertex="1" parent="r5x3oo1cbtI0Zd6zdWHc-1">
          <mxGeometry y="120" width="390" height="30" as="geometry" />
        </mxCell>
        <mxCell id="r5x3oo1cbtI0Zd6zdWHc-5" value="PhotoProfile - Upload_Id (Uploads Schema)" style="text;strokeColor=none;fillColor=none;align=left;verticalAlign=middle;spacingLeft=4;spacingRight=4;overflow=hidden;points=[[0,0.5],[1,0.5]];portConstraint=eastwest;rotatable=0;" vertex="1" parent="r5x3oo1cbtI0Zd6zdWHc-1">
          <mxGeometry y="150" width="390" height="30" as="geometry" />
        </mxCell>
        <mxCell id="r5x3oo1cbtI0Zd6zdWHc-6" value="Username - String" style="text;strokeColor=none;fillColor=none;align=left;verticalAlign=middle;spacingLeft=4;spacingRight=4;overflow=hidden;points=[[0,0.5],[1,0.5]];portConstraint=eastwest;rotatable=0;" vertex="1" parent="r5x3oo1cbtI0Zd6zdWHc-1">
          <mxGeometry y="180" width="390" height="30" as="geometry" />
        </mxCell>
        <mxCell id="r5x3oo1cbtI0Zd6zdWHc-7" value="Password - String" style="text;strokeColor=none;fillColor=none;align=left;verticalAlign=middle;spacingLeft=4;spacingRight=4;overflow=hidden;points=[[0,0.5],[1,0.5]];portConstraint=eastwest;rotatable=0;" vertex="1" parent="r5x3oo1cbtI0Zd6zdWHc-1">
          <mxGeometry y="210" width="390" height="30" as="geometry" />
        </mxCell>
        <mxCell id="r5x3oo1cbtI0Zd6zdWHc-8" value="Name - String" style="text;strokeColor=none;fillColor=none;align=left;verticalAlign=middle;spacingLeft=4;spacingRight=4;overflow=hidden;points=[[0,0.5],[1,0.5]];portConstraint=eastwest;rotatable=0;" vertex="1" parent="r5x3oo1cbtI0Zd6zdWHc-1">
          <mxGeometry y="240" width="390" height="30" as="geometry" />
        </mxCell>
        <mxCell id="r5x3oo1cbtI0Zd6zdWHc-9" value="Surname - String" style="text;strokeColor=none;fillColor=none;align=left;verticalAlign=middle;spacingLeft=4;spacingRight=4;overflow=hidden;points=[[0,0.5],[1,0.5]];portConstraint=eastwest;rotatable=0;" vertex="1" parent="r5x3oo1cbtI0Zd6zdWHc-1">
          <mxGeometry y="270" width="390" height="30" as="geometry" />
        </mxCell>
        <mxCell id="r5x3oo1cbtI0Zd6zdWHc-10" value="Mail - Mail Schema" style="text;strokeColor=none;fillColor=none;align=left;verticalAlign=middle;spacingLeft=4;spacingRight=4;overflow=hidden;points=[[0,0.5],[1,0.5]];portConstraint=eastwest;rotatable=0;" vertex="1" parent="r5x3oo1cbtI0Zd6zdWHc-1">
          <mxGeometry y="300" width="390" height="30" as="geometry" />
        </mxCell>
        <mxCell id="r5x3oo1cbtI0Zd6zdWHc-11" value="ssn - String" style="text;strokeColor=none;fillColor=none;align=left;verticalAlign=middle;spacingLeft=4;spacingRight=4;overflow=hidden;points=[[0,0.5],[1,0.5]];portConstraint=eastwest;rotatable=0;" vertex="1" parent="r5x3oo1cbtI0Zd6zdWHc-1">
          <mxGeometry y="330" width="390" height="30" as="geometry" />
        </mxCell>
        <mxCell id="r5x3oo1cbtI0Zd6zdWHc-12" value="address - Addresses Schema" style="text;strokeColor=none;fillColor=none;align=left;verticalAlign=middle;spacingLeft=4;spacingRight=4;overflow=hidden;points=[[0,0.5],[1,0.5]];portConstraint=eastwest;rotatable=0;" vertex="1" parent="r5x3oo1cbtI0Zd6zdWHc-1">
          <mxGeometry y="360" width="390" height="30" as="geometry" />
        </mxCell>
        <mxCell id="r5x3oo1cbtI0Zd6zdWHc-13" value="session - Sessions Schema" style="text;strokeColor=none;fillColor=none;align=left;verticalAlign=middle;spacingLeft=4;spacingRight=4;overflow=hidden;points=[[0,0.5],[1,0.5]];portConstraint=eastwest;rotatable=0;" vertex="1" parent="r5x3oo1cbtI0Zd6zdWHc-1">
          <mxGeometry y="390" width="390" height="30" as="geometry" />
        </mxCell>
        <mxCell id="r5x3oo1cbtI0Zd6zdWHc-14" value="authentication - Authentication Schema" style="text;strokeColor=none;fillColor=none;align=left;verticalAlign=middle;spacingLeft=4;spacingRight=4;overflow=hidden;points=[[0,0.5],[1,0.5]];portConstraint=eastwest;rotatable=0;" vertex="1" parent="r5x3oo1cbtI0Zd6zdWHc-1">
          <mxGeometry y="420" width="390" height="30" as="geometry" />
        </mxCell>
        <mxCell id="r5x3oo1cbtI0Zd6zdWHc-4" value="Status - Boolean" style="text;strokeColor=none;fillColor=none;align=left;verticalAlign=middle;spacingLeft=4;spacingRight=4;overflow=hidden;points=[[0,0.5],[1,0.5]];portConstraint=eastwest;rotatable=0;" vertex="1" parent="r5x3oo1cbtI0Zd6zdWHc-1">
          <mxGeometry y="450" width="390" height="30" as="geometry" />
        </mxCell>
        <mxCell id="r5x3oo1cbtI0Zd6zdWHc-15" value="&lt;h1&gt;Basic Information of users&lt;/h1&gt;&lt;div&gt;The users registred in system has the unique authorization for login.&lt;/div&gt;" style="text;html=1;strokeColor=none;fillColor=none;spacing=5;spacingTop=-20;whiteSpace=wrap;overflow=hidden;rounded=0;" vertex="1" parent="WIyWlLk6GJQsqaUBKTNV-1">
          <mxGeometry x="430" y="210" width="376" height="80" as="geometry" />
        </mxCell>
        <mxCell id="r5x3oo1cbtI0Zd6zdWHc-20" value="" style="edgeStyle=orthogonalEdgeStyle;rounded=0;orthogonalLoop=1;jettySize=auto;html=1;" edge="1" parent="WIyWlLk6GJQsqaUBKTNV-1" source="r5x3oo1cbtI0Zd6zdWHc-16">
          <mxGeometry relative="1" as="geometry">
            <mxPoint x="310" y="631" as="targetPoint" />
          </mxGeometry>
        </mxCell>
        <mxCell id="r5x3oo1cbtI0Zd6zdWHc-16" value="Anyone" style="shape=umlActor;verticalLabelPosition=bottom;verticalAlign=top;html=1;outlineConnect=0;" vertex="1" parent="WIyWlLk6GJQsqaUBKTNV-1">
          <mxGeometry x="62" y="601" width="30" height="60" as="geometry" />
        </mxCell>
        <mxCell id="r5x3oo1cbtI0Zd6zdWHc-17" value="Window for register account" style="swimlane;" vertex="1" parent="WIyWlLk6GJQsqaUBKTNV-1">
          <mxGeometry x="312" y="520" width="490" height="200" as="geometry" />
        </mxCell>
        <mxCell id="r5x3oo1cbtI0Zd6zdWHc-22" value="&lt;h1&gt;Fill inputs of form&lt;/h1&gt;&lt;p&gt;For create of account the user is obligated a fill all inputs of form in this window.&lt;/p&gt;" style="text;html=1;strokeColor=none;fillColor=none;spacing=5;spacingTop=-20;whiteSpace=wrap;overflow=hidden;rounded=0;" vertex="1" parent="r5x3oo1cbtI0Zd6zdWHc-17">
          <mxGeometry x="10" y="30" width="470" height="70" as="geometry" />
        </mxCell>
        <mxCell id="r5x3oo1cbtI0Zd6zdWHc-29" value="&lt;h1&gt;How validate account?&lt;/h1&gt;&lt;p&gt;All accounts of users is free for use, but some resources is pay.&lt;/p&gt;" style="text;html=1;strokeColor=none;fillColor=none;spacing=5;spacingTop=-20;whiteSpace=wrap;overflow=hidden;rounded=0;" vertex="1" parent="r5x3oo1cbtI0Zd6zdWHc-17">
          <mxGeometry x="10" y="116" width="350" height="64" as="geometry" />
        </mxCell>
        <mxCell id="r5x3oo1cbtI0Zd6zdWHc-21" value="Request router..." style="text;html=1;strokeColor=none;fillColor=none;align=center;verticalAlign=middle;whiteSpace=wrap;rounded=0;" vertex="1" parent="WIyWlLk6GJQsqaUBKTNV-1">
          <mxGeometry x="120" y="601" width="160" height="30" as="geometry" />
        </mxCell>
      </root>
    </mxGraphModel>
  </diagram>
</mxfile>
